# xmcd CD database file
#
# Track frame offsets:
#	150
#	11537
#	30675
#	59177
#	69240
#	80850
#	93482
#	104952
#	118002
#	130430
#	142472
#	155617
#	169322
#	182392
#	194712
#	206210
#	217255
#	230000
#
# Disc length: 3222 seconds
#
# Revision: 0
# Processed by: cddbd v1.4PL0 Copyright (c) Steve Scherf et al.
# Submitted via: CDex 1.40Release
#
DISCID=2c0c9412
DTITLE=John Lee Hooker - The Best of John Lee Hooker
DYEAR=1993
DGENRE=Blues
TTITLE0=Boom Boom
TTITLE1=Shake It Baby
TTITLE2=The Right Time
TTITLE3=Dimples
TTITLE4=Boogie Chillun
TTITLE5=Mambo Chillun
TTITLE6=Wheel And Deal
TTITLE7=Im So Excited
TTITLE8=Trouble Blues
TTITLE9=Everybody Rockin
TTITLE10=Unfriendly Woman
TTITLE11=Time Is Marchin
TTITLE12=I See You When Youre Weak
TTITLE13=Im In The Mood
TTITLE14=Will The Circle Be Unbroken
TTITLE15=This Is Hip
TTITLE16=Hobo Blues
TTITLE17=Solid Sender
EXTD=YEAR: 1993 ID3G: 0
EXTT0=
EXTT1=
EXTT2=
EXTT3=
EXTT4=
EXTT5=
EXTT6=
EXTT7=
EXTT8=
EXTT9=
EXTT10=
EXTT11=
EXTT12=
EXTT13=
EXTT14=
EXTT15=
EXTT16=
EXTT17=
PLAYORDER=
